<?xml version="1.0" encoding="UTF-8"?>
<svg width="300px" height="52px" viewBox="0 0 300 52" version="1.1" xmlns="http://www.w3.org/2000/svg" xmlns:xlink="http://www.w3.org/1999/xlink">
    <!-- Generator: Sketch 46.2 (44496) - http://www.bohemiancoding.com/sketch -->
    <title>tttm-logo</title>
    <desc>Created with Sketch.</desc>
    <defs></defs>
    <g id="Pages" stroke="none" stroke-width="1" fill="none" fill-rule="evenodd">
        <g id="HOME" transform="translate(-60.000000, -44.000000)">
            <g id="Header">
                <g id="Logo" transform="translate(0.000000, 30.000000)">
                    <g id="tttm-logo" transform="translate(60.000000, 14.000000)">
                        <g id="wordmark" transform="translate(62.000000, 17.000000)" fill="#153A63">
                            <polygon id="Fill-1" points="2.09071429 14.8327273 4.68487013 14.8327273 6.79396104 2.9061039 3.73941558 2.9061039 3.27902597 5.52363636 0.393961039 5.52363636 1.31538961 0.384675325 16.0543506 0.384675325 15.1329221 5.52363636 12.2485065 5.52363636 12.7329221 2.9061039 9.67902597 2.9061039 7.56993506 14.8327273 10.1874675 14.8327273 9.7511039 17.3541558 1.65435065 17.3541558"></polygon>
                            <polygon id="Fill-2" points="19.9570779 14.8327273 22.0908442 14.8327273 21.6544805 17.3541558 14.5265584 17.3541558 14.9635714 14.8327273 17.0726623 14.8327273 19.1811039 2.9061039 17.0726623 2.9061039 17.509026 0.384675325 24.6356494 0.384675325 24.1999351 2.9061039 22.0661688 2.9061039"></polygon>
                            <path d="M31.6415584,2.66376623 C29.2896104,2.66376623 27.6175325,3.92350649 27.2051948,6.27545455 L26.2844156,11.4877922 C25.8714286,13.8150649 27.1077922,15.0748052 29.387013,15.0748052 C31.6896104,15.0748052 33.3142857,13.8877922 33.7266234,11.5838961 L36.611039,11.5838961 C35.9084416,15.5351948 33.1688312,17.5968831 29.1448052,17.5968831 C25.0954545,17.5968831 22.7688312,15.317013 23.4480519,11.3176623 L24.3201299,6.25077922 C24.9993506,2.44493506 27.6655844,0.142337662 31.6662338,0.142337662 C33.4357143,0.142337662 34.8655844,0.675454545 35.762987,1.66961039 L36.3201299,0.384545455 L38.5753247,0.384545455 L37.5564935,6.13 L34.6720779,6.13 C35.1077922,3.75402597 33.8714286,2.66376623 31.6415584,2.66376623" id="Fill-3"></path>
                            <polygon id="Fill-5" points="49.3382468 0.384675325 56.8285065 0.384675325 56.3921429 2.9061039 54.573961 2.9061039 48.1746104 7.82688312 52.7317532 14.8327273 54.6473377 14.8327273 54.1862987 17.3541558 46.7200649 17.3541558 47.1564286 14.8327273 48.973961 14.8327273 45.6772078 9.66974026 43.0837013 11.6814286 42.5259091 14.8327273 44.659026 14.8327273 44.2226623 17.3541558 37.0953896 17.3541558 37.5317532 14.8327273 39.6408442 14.8327273 41.7499351 2.9061039 39.6408442 2.9061039 40.0772078 0.384675325 47.2051299 0.384675325 46.7681169 2.9061039 44.635 2.9061039 43.6414935 8.48142857 50.7921429 2.9061039 48.9018831 2.9061039"></polygon>
                            <polygon id="Fill-7" points="60.0525325 2.90603896 57.9434416 2.90603896 58.3798052 0.38461039 71.8830519 0.38461039 70.9862987 5.52357143 68.1012338 5.52357143 68.5616234 2.90603896 62.9375974 2.90603896 62.1135714 7.60863636 67.9557792 7.60863636 67.4953896 10.1300649 61.6525325 10.1300649 60.8285065 14.8326623 66.4525325 14.8326623 66.9129221 12.1911039 69.797987 12.1911039 68.9012338 17.3540909 55.3986364 17.3540909 55.8343506 14.8326623 57.9434416 14.8326623"></polygon>
                            <polygon id="Fill-9" points="74.2342857 14.8327273 76.8284416 14.8327273 78.9375325 2.9061039 75.882987 2.9061039 75.4219481 5.52363636 72.5375325 5.52363636 73.458961 0.384675325 88.1979221 0.384675325 87.2764935 5.52363636 84.3920779 5.52363636 84.8771429 2.9061039 81.8232468 2.9061039 79.7135065 14.8327273 82.3316883 14.8327273 81.8953247 17.3541558 73.7979221 17.3541558"></polygon>
                            <polygon id="Fill-11" points="90.403961 15.6083117 93.1916234 15.6083117 95.5429221 2.12974026 91.2286364 2.12974026 90.6701948 5.23233766 88.6831818 5.23233766 89.5312338 0.384935065 104.197468 0.384935065 103.32474 5.23233766 101.337078 5.23233766 101.870844 2.12974026 97.5552597 2.12974026 95.203961 15.6083117 97.9922727 15.6083117 97.676039 17.3537662 90.089026 17.3537662"></polygon>
                            <path d="M115.76039,6.22694805 C116.246104,3.46331169 114.84026,1.88733766 112.003247,1.88733766 C109.118182,1.88733766 107.107143,3.46331169 106.621429,6.22694805 L105.700649,11.5607143 C105.215584,14.3237013 106.621429,15.8503247 109.458442,15.8503247 C112.318182,15.8503247 114.331169,14.3237013 114.815584,11.5607143 L115.76039,6.22694805 Z M116.827922,11.5607143 C116.125325,15.4633117 113.385714,17.5970779 109.288312,17.5970779 C105.24026,17.5970779 103.033766,15.3665584 103.712987,11.4386364 L104.633766,6.22694805 C105.312987,2.3237013 108.076623,0.142532468 112.173377,0.142532468 C116.221429,0.142532468 118.427273,2.44512987 117.724675,6.34837662 L116.827922,11.5607143 L116.827922,11.5607143 Z" id="Fill-13"></path>
                            <polygon id="Fill-15" points="120.875909 15.6083117 123.663571 15.6083117 126.01487 2.12974026 121.700584 2.12974026 121.142143 5.23233766 119.154481 5.23233766 120.003182 0.384935065 134.669416 0.384935065 133.796688 5.23233766 131.809026 5.23233766 132.342143 2.12974026 128.027208 2.12974026 125.675909 15.6083117 128.463571 15.6083117 128.147987 17.3537662 120.560325 17.3537662"></polygon>
                            <polygon id="Fill-17" points="148.657857 15.6083117 150.960455 15.6083117 150.645519 17.3537662 144.026039 17.3537662 144.342273 15.6083117 146.64487 15.6083117 147.687727 9.7174026 139.033182 9.7174026 138.015 15.6083117 140.318247 15.6083117 140.002662 17.3537662 133.384481 17.3537662 133.700065 15.6083117 136.002662 15.6083117 138.35461 2.12974026 136.051364 2.12974026 136.366299 0.384935065 142.98513 0.384935065 142.669545 2.12974026 140.366299 2.12974026 139.348766 7.9725974 147.977987 7.9725974 148.996169 2.12974026 146.693571 2.12974026 147.008506 0.384935065 153.626039 0.384935065 153.312403 2.12974026 151.008506 2.12974026"></polygon>
                            <polygon id="Fill-19" points="157.553442 2.12980519 155.250844 2.12980519 155.565779 0.384350649 168.826169 0.384350649 167.954091 5.2324026 165.965779 5.2324026 166.498896 2.12980519 159.566429 2.12980519 158.547597 7.97266234 164.802143 7.97266234 164.511883 9.71746753 158.232662 9.71746753 157.21513 15.6083766 164.122922 15.6083766 164.681364 12.5057792 166.669026 12.5057792 165.845 17.3538312 152.583961 17.3538312 152.899545 15.6083766 155.202792 15.6083766"></polygon>
                            <polygon id="Fill-21" points="171.92987 16.3838312 174.401948 16.3838312 174.232468 17.353961 168.148052 17.353961 168.318182 16.3838312 170.79026 16.3838312 173.431818 1.35396104 170.96039 1.35396104 171.12987 0.384480519 174.717532 0.384480519 178.717532 11.5604545 186.692857 0.384480519 190.257143 0.384480519 190.087013 1.35396104 187.59026 1.35396104 184.947403 16.3838312 187.444805 16.3838312 187.275325 17.353961 181.19026 17.353961 181.35974 16.3838312 183.833117 16.3838312 186.256494 2.63902597 178.353896 13.6929221 174.329221 2.56694805"></polygon>
                            <path d="M202.28,6.20285714 C202.837792,3.02688312 201.262468,1.11194805 197.892338,1.11194805 C194.522857,1.11194805 192.146883,2.9061039 191.58974,6.08142857 L190.61961,11.535974 C190.062468,14.7366234 191.661818,16.6268831 195.007922,16.6268831 C198.401429,16.6268831 200.752727,14.8327273 201.310519,11.6327273 L202.28,6.20285714 Z M202.426104,11.6087013 C201.747532,15.4632468 199.007922,17.597013 194.959221,17.597013 C190.910519,17.597013 188.849481,15.2937662 189.528701,11.4638961 L190.474156,6.08142857 C191.153377,2.25155844 193.868312,0.142467532 197.94039,0.142467532 C201.965714,0.142467532 204.05013,2.42103896 203.371558,6.27558442 L202.426104,11.6087013 L202.426104,11.6087013 Z" id="Fill-23"></path>
                            <path d="M217.383117,6.20285714 C217.94026,3.02688312 216.365584,1.11194805 212.994805,1.11194805 C209.625974,1.11194805 207.25,2.9061039 206.692857,6.08142857 L205.722727,11.535974 C205.164935,14.7366234 206.764935,16.6268831 210.11039,16.6268831 C213.503896,16.6268831 215.855844,14.8327273 216.413636,11.6327273 L217.383117,6.20285714 Z M217.528571,11.6087013 C216.85,15.4632468 214.11039,17.597013 210.062338,17.597013 C206.013636,17.597013 203.953247,15.2937662 204.631169,11.4638961 L205.577273,6.08142857 C206.255195,2.25155844 208.971429,0.142467532 213.044156,0.142467532 C217.068182,0.142467532 219.153247,2.42103896 218.474026,6.27558442 L217.528571,11.6087013 L217.528571,11.6087013 Z" id="Fill-25"></path>
                            <polygon id="Fill-27" points="221.504351 16.3838312 223.977727 16.3838312 223.807597 17.353961 217.722532 17.353961 217.892662 16.3838312 220.36539 16.3838312 223.007597 1.35396104 220.53487 1.35396104 220.704351 0.384480519 224.243961 0.384480519 231.636818 15.3422727 234.086169 1.35396104 231.612792 1.35396104 231.782922 0.384480519 237.867987 0.384480519 237.697857 1.35396104 235.201753 1.35396104 232.412792 17.353961 231.346558 17.353961 223.953052 2.39681818"></polygon>
                        </g>
                        <g id="logomark">
                            <path d="M51.8982468,24.3880519 C52.7742208,38.7062338 41.8781169,51.0231169 27.5599351,51.8984416 C13.2424026,52.7750649 0.925519481,41.878961 0.0495454545,27.5607792 C-0.827077922,13.2425974 10.0696753,0.925714286 24.3878571,0.0497402597 C38.706039,-0.826883117 51.0222727,10.0705195 51.8982468,24.3880519" id="Fill-29" fill="#153A63"></path>
                            <path d="M12.5751299,33.2608442 C14.2978571,33.1556494 15.7783766,34.4426623 15.8816234,36.1348701 C15.9108442,36.6114935 15.8244805,37.067987 15.6511039,37.4829221 C19.1407143,38.5595455 22.8926623,39.3166883 26.8225325,39.7017532 C33.9186364,38.1166883 40.2511039,35.3387662 45.3686364,31.8088961 C43.4114935,32.8140909 41.2465584,33.493961 38.9322727,33.7627922 C28.5874675,34.9673377 19.2264286,27.5575974 18.0218831,17.2127922 C17.4705844,12.4744805 18.7303247,7.94461039 21.2472078,4.30824675 C10.7322727,6.58811688 3.16474026,16.2575974 3.84201299,27.3277273 C3.955,29.1712338 4.29331169,30.9465584 4.82318182,32.6322727 C6.38487013,33.5972078 8.05564935,34.4855195 9.82577922,35.2842208 C10.2381169,34.1673377 11.2926623,33.3387662 12.5751299,33.2608442" id="Fill-31" fill="#FDF8E4"></path>
                            <path d="M45.3686364,31.8086364 C40.2511039,35.3391558 33.9186364,38.1164286 26.8225325,39.7014935 C27.6134416,39.7787662 28.4082468,39.8475974 29.2121429,39.8937013 C34.4166883,40.1937013 39.416039,39.7995455 44.029026,38.8404545 C45.8088961,36.3456494 47.080974,33.4735714 47.7062987,30.3826623 C47.7303247,30.2618831 47.7543506,30.1417532 47.7764286,30.0203247 C47.0075974,30.6352597 46.2043506,31.2313636 45.3686364,31.8086364" id="Fill-33" fill="#F9B828"></path>
                            <path d="M29.2122078,39.8938312 C28.4083117,39.8477273 27.6135065,39.7788961 26.8225974,39.7016234 C22.8927273,39.3165584 19.1407792,38.5594156 15.6511688,37.4827922 C15.8245455,37.0678571 15.9109091,36.6113636 15.8816883,36.1347403 C15.7784416,34.4425325 14.2979221,33.1555195 12.5751948,33.2607143 C11.2927273,33.3386364 10.2381818,34.1678571 9.82584416,35.2840909 C8.05506494,34.4853896 6.38493506,33.5970779 4.8225974,32.6321429 C5.80766234,35.7698052 7.46545455,38.5925325 9.62,40.9425325 C13.9836364,45.7048701 20.3784416,48.5308442 27.3277922,48.1055195 C34.2764935,47.6801948 40.2777922,44.0977273 44.0284416,38.8405844 C39.4154545,39.799026 34.4167532,40.1938312 29.2122078,39.8938312" id="Fill-35" fill="#EF6F29"></path>
                        </g>
                    </g>
                </g>
            </g>
        </g>
    </g>
</svg>